<?xml version="1.0" encoding="UTF-8"?>
<svg xmlns="http://www.w3.org/2000/svg" xmlns:xlink="http://www.w3.org/1999/xlink" viewBox="0 0 128 128" width="128px" height="128px">
<g id="surface7523491">
<path style=" stroke:none;fill-rule:nonzero;fill-opacity:1;" d="M 64 6.050781 C 49.148438 6.050781 34.300781 11.699219 23 23 C 0.398438 45.601562 0.398438 82.398438 23 105 C 34.300781 116.300781 49.199219 122 64 122 C 78.800781 122 93.699219 116.300781 105 105 C 127.601562 82.398438 127.601562 45.601562 105 23 C 93.699219 11.699219 78.851562 6.050781 64 6.050781 Z M 64 12 C 77.300781 12 90.601562 17.097656 100.800781 27.199219 C 121 47.5 121 80.5 100.800781 100.800781 C 80.5 121.101562 47.5 121.101562 27.300781 100.800781 C 7 80.5 7 47.5 27.199219 27.199219 C 37.398438 17.097656 50.699219 12 64 12 Z M 64 42 C 62.300781 42 61 43.300781 61 45 L 61 61 L 45 61 C 43.300781 61 42 62.300781 42 64 C 42 65.699219 43.300781 67 45 67 L 61 67 L 61 83 C 61 84.699219 62.300781 86 64 86 C 65.699219 86 67 84.699219 67 83 L 67 67 L 83 67 C 84.699219 67 86 65.699219 86 64 C 86 62.300781 84.699219 61 83 61 L 67 61 L 67 45 C 67 43.300781 65.699219 42 64 42 Z M 64 42 "/>
</g>
</svg>
